<mxfile host="app.diagrams.net" agent="Mozilla/5.0 (Windows NT 10.0; Win64; x64) AppleWebKit/537.36 (KHTML, like Gecko) Chrome/138.0.0.0 Safari/537.36" version="28.0.6">
  <diagram name="PÃ¡gina-1" id="PlJb_1ajy5kmcuQfSXIE">
    <mxGraphModel grid="1" page="1" gridSize="10" guides="1" tooltips="1" connect="1" arrows="1" fold="1" pageScale="1" pageWidth="827" pageHeight="1169" math="0" shadow="0">
      <root>
        <mxCell id="0" />
        <mxCell id="1" parent="0" />
        <mxCell id="ind6t7qouMoJOIxYdF1F-63" value="" style="html=1;verticalAlign=bottom;startArrow=circle;startFill=1;endArrow=open;startSize=6;endSize=8;curved=0;rounded=0;entryX=0.5;entryY=0;entryDx=0;entryDy=0;" edge="1" parent="1">
          <mxGeometry width="80" relative="1" as="geometry">
            <mxPoint x="435" y="30" as="sourcePoint" />
            <mxPoint x="440" y="90.00000000000006" as="targetPoint" />
          </mxGeometry>
        </mxCell>
        <mxCell id="ind6t7qouMoJOIxYdF1F-64" value="ref" style="shape=umlFrame;whiteSpace=wrap;html=1;pointerEvents=0;" vertex="1" parent="1">
          <mxGeometry x="290" y="90" width="300" height="60" as="geometry" />
        </mxCell>
        <mxCell id="ind6t7qouMoJOIxYdF1F-65" value="Cliente llena campos" style="text;html=1;align=center;verticalAlign=middle;resizable=0;points=[];autosize=1;strokeColor=none;fillColor=none;" vertex="1" parent="1">
          <mxGeometry x="370" y="105" width="130" height="30" as="geometry" />
        </mxCell>
        <mxCell id="ind6t7qouMoJOIxYdF1F-70" style="edgeStyle=orthogonalEdgeStyle;rounded=0;orthogonalLoop=1;jettySize=auto;html=1;entryX=0.5;entryY=0;entryDx=0;entryDy=0;" edge="1" parent="1" source="ind6t7qouMoJOIxYdF1F-66" target="ind6t7qouMoJOIxYdF1F-82">
          <mxGeometry relative="1" as="geometry">
            <mxPoint x="440" y="400" as="targetPoint" />
          </mxGeometry>
        </mxCell>
        <mxCell id="ind6t7qouMoJOIxYdF1F-66" value="ref" style="shape=umlFrame;whiteSpace=wrap;html=1;pointerEvents=0;" vertex="1" parent="1">
          <mxGeometry x="290" y="240" width="300" height="60" as="geometry" />
        </mxCell>
        <mxCell id="ind6t7qouMoJOIxYdF1F-67" value="Validar campos llenos" style="text;html=1;align=center;verticalAlign=middle;whiteSpace=wrap;rounded=0;" vertex="1" parent="1">
          <mxGeometry x="380" y="255" width="110" height="30" as="geometry" />
        </mxCell>
        <mxCell id="ind6t7qouMoJOIxYdF1F-69" style="edgeStyle=orthogonalEdgeStyle;rounded=0;orthogonalLoop=1;jettySize=auto;html=1;entryX=0.497;entryY=0.039;entryDx=0;entryDy=0;entryPerimeter=0;" edge="1" parent="1" source="ind6t7qouMoJOIxYdF1F-64" target="ind6t7qouMoJOIxYdF1F-66">
          <mxGeometry relative="1" as="geometry" />
        </mxCell>
        <mxCell id="ind6t7qouMoJOIxYdF1F-90" style="edgeStyle=orthogonalEdgeStyle;rounded=0;orthogonalLoop=1;jettySize=auto;html=1;entryX=0.5;entryY=0;entryDx=0;entryDy=0;" edge="1" parent="1" source="ind6t7qouMoJOIxYdF1F-71" target="ind6t7qouMoJOIxYdF1F-89">
          <mxGeometry relative="1" as="geometry">
            <mxPoint x="350" y="770" as="targetPoint" />
          </mxGeometry>
        </mxCell>
        <mxCell id="ind6t7qouMoJOIxYdF1F-71" value="Sd sistema&amp;nbsp;&amp;nbsp;" style="shape=umlFrame;whiteSpace=wrap;html=1;pointerEvents=0;" vertex="1" parent="1">
          <mxGeometry x="80" y="460" width="300" height="210" as="geometry" />
        </mxCell>
        <mxCell id="ind6t7qouMoJOIxYdF1F-72" style="edgeStyle=orthogonalEdgeStyle;rounded=0;orthogonalLoop=1;jettySize=auto;html=1;entryX=0.533;entryY=0;entryDx=0;entryDy=0;entryPerimeter=0;exitX=0.5;exitY=1;exitDx=0;exitDy=0;" edge="1" parent="1" source="ind6t7qouMoJOIxYdF1F-82" target="ind6t7qouMoJOIxYdF1F-71">
          <mxGeometry relative="1" as="geometry">
            <mxPoint x="420" y="419.9999999999999" as="sourcePoint" />
          </mxGeometry>
        </mxCell>
        <mxCell id="ind6t7qouMoJOIxYdF1F-91" style="edgeStyle=orthogonalEdgeStyle;rounded=0;orthogonalLoop=1;jettySize=auto;html=1;entryX=0.5;entryY=0;entryDx=0;entryDy=0;" edge="1" parent="1" source="ind6t7qouMoJOIxYdF1F-73" target="ind6t7qouMoJOIxYdF1F-89">
          <mxGeometry relative="1" as="geometry">
            <Array as="points">
              <mxPoint x="650" y="720" />
              <mxPoint x="420" y="720" />
            </Array>
          </mxGeometry>
        </mxCell>
        <mxCell id="ind6t7qouMoJOIxYdF1F-73" value="Sd campos llenos" style="shape=umlFrame;whiteSpace=wrap;html=1;pointerEvents=0;width=90;height=30;" vertex="1" parent="1">
          <mxGeometry x="500" y="460" width="300" height="210" as="geometry" />
        </mxCell>
        <mxCell id="ind6t7qouMoJOIxYdF1F-74" style="edgeStyle=orthogonalEdgeStyle;rounded=0;orthogonalLoop=1;jettySize=auto;html=1;entryX=0.503;entryY=-0.038;entryDx=0;entryDy=0;entryPerimeter=0;exitX=0.5;exitY=1;exitDx=0;exitDy=0;" edge="1" parent="1" source="ind6t7qouMoJOIxYdF1F-82" target="ind6t7qouMoJOIxYdF1F-73">
          <mxGeometry relative="1" as="geometry">
            <mxPoint x="460" y="419.9999999999999" as="sourcePoint" />
          </mxGeometry>
        </mxCell>
        <mxCell id="ind6t7qouMoJOIxYdF1F-77" value="" style="html=1;verticalAlign=bottom;endArrow=block;curved=0;rounded=0;entryX=0;entryY=0;entryDx=0;entryDy=5;" edge="1" parent="1" source="ind6t7qouMoJOIxYdF1F-79" target="ind6t7qouMoJOIxYdF1F-76">
          <mxGeometry relative="1" as="geometry">
            <mxPoint x="190" y="545" as="sourcePoint" />
          </mxGeometry>
        </mxCell>
        <mxCell id="ind6t7qouMoJOIxYdF1F-79" value="&lt;div&gt;&lt;br&gt;&lt;/div&gt;&lt;div&gt;&lt;span style=&quot;text-wrap-mode: nowrap;&quot;&gt;Cliente&lt;/span&gt;&lt;/div&gt;" style="shape=umlLifeline;perimeter=lifelinePerimeter;whiteSpace=wrap;html=1;container=1;dropTarget=0;collapsible=0;recursiveResize=0;outlineConnect=0;portConstraint=eastwest;newEdgeStyle={&quot;curved&quot;:0,&quot;rounded&quot;:0};" vertex="1" parent="1">
          <mxGeometry x="100" y="500" width="70" height="170" as="geometry" />
        </mxCell>
        <mxCell id="ind6t7qouMoJOIxYdF1F-80" value="Base de datos&amp;nbsp;" style="shape=umlLifeline;perimeter=lifelinePerimeter;whiteSpace=wrap;html=1;container=1;dropTarget=0;collapsible=0;recursiveResize=0;outlineConnect=0;portConstraint=eastwest;newEdgeStyle={&quot;curved&quot;:0,&quot;rounded&quot;:0};" vertex="1" parent="1">
          <mxGeometry x="280" y="500" width="70" height="170" as="geometry" />
        </mxCell>
        <mxCell id="ind6t7qouMoJOIxYdF1F-76" value="" style="html=1;points=[[0,0,0,0,5],[0,1,0,0,-5],[1,0,0,0,5],[1,1,0,0,-5]];perimeter=orthogonalPerimeter;outlineConnect=0;targetShapes=umlLifeline;portConstraint=eastwest;newEdgeStyle={&quot;curved&quot;:0,&quot;rounded&quot;:0};" vertex="1" parent="ind6t7qouMoJOIxYdF1F-80">
          <mxGeometry x="30" y="50" width="10" height="40" as="geometry" />
        </mxCell>
        <mxCell id="ind6t7qouMoJOIxYdF1F-81" value="Valida los datos" style="text;html=1;align=center;verticalAlign=middle;whiteSpace=wrap;rounded=0;" vertex="1" parent="1">
          <mxGeometry x="200" y="520" width="60" height="30" as="geometry" />
        </mxCell>
        <mxCell id="ind6t7qouMoJOIxYdF1F-82" value="" style="rounded=0;whiteSpace=wrap;html=1;" vertex="1" parent="1">
          <mxGeometry x="380" y="400" width="120" height="20" as="geometry" />
        </mxCell>
        <mxCell id="ind6t7qouMoJOIxYdF1F-84" value="" style="html=1;verticalAlign=bottom;endArrow=block;curved=0;rounded=0;entryX=0;entryY=0;entryDx=0;entryDy=5;" edge="1" parent="1" source="ind6t7qouMoJOIxYdF1F-85" target="ind6t7qouMoJOIxYdF1F-87">
          <mxGeometry relative="1" as="geometry">
            <mxPoint x="610" y="545" as="sourcePoint" />
          </mxGeometry>
        </mxCell>
        <mxCell id="ind6t7qouMoJOIxYdF1F-85" value="&lt;div&gt;&lt;br&gt;&lt;/div&gt;&lt;div&gt;&lt;span style=&quot;text-wrap-mode: nowrap;&quot;&gt;Cliente&lt;/span&gt;&lt;/div&gt;" style="shape=umlLifeline;perimeter=lifelinePerimeter;whiteSpace=wrap;html=1;container=1;dropTarget=0;collapsible=0;recursiveResize=0;outlineConnect=0;portConstraint=eastwest;newEdgeStyle={&quot;curved&quot;:0,&quot;rounded&quot;:0};" vertex="1" parent="1">
          <mxGeometry x="520" y="500" width="70" height="170" as="geometry" />
        </mxCell>
        <mxCell id="ind6t7qouMoJOIxYdF1F-86" value="sistema&amp;nbsp;" style="shape=umlLifeline;perimeter=lifelinePerimeter;whiteSpace=wrap;html=1;container=1;dropTarget=0;collapsible=0;recursiveResize=0;outlineConnect=0;portConstraint=eastwest;newEdgeStyle={&quot;curved&quot;:0,&quot;rounded&quot;:0};" vertex="1" parent="1">
          <mxGeometry x="700" y="500" width="70" height="170" as="geometry" />
        </mxCell>
        <mxCell id="ind6t7qouMoJOIxYdF1F-87" value="" style="html=1;points=[[0,0,0,0,5],[0,1,0,0,-5],[1,0,0,0,5],[1,1,0,0,-5]];perimeter=orthogonalPerimeter;outlineConnect=0;targetShapes=umlLifeline;portConstraint=eastwest;newEdgeStyle={&quot;curved&quot;:0,&quot;rounded&quot;:0};" vertex="1" parent="ind6t7qouMoJOIxYdF1F-86">
          <mxGeometry x="30" y="50" width="10" height="40" as="geometry" />
        </mxCell>
        <mxCell id="ind6t7qouMoJOIxYdF1F-88" value="Valida los campos&amp;nbsp;" style="text;html=1;align=center;verticalAlign=middle;whiteSpace=wrap;rounded=0;" vertex="1" parent="1">
          <mxGeometry x="620" y="520" width="60" height="30" as="geometry" />
        </mxCell>
        <mxCell id="Hil5kp-FLWFpPKHoxjlO-6" style="edgeStyle=orthogonalEdgeStyle;rounded=0;orthogonalLoop=1;jettySize=auto;html=1;entryX=0.5;entryY=0;entryDx=0;entryDy=0;" edge="1" parent="1" source="ind6t7qouMoJOIxYdF1F-89" target="Hil5kp-FLWFpPKHoxjlO-5">
          <mxGeometry relative="1" as="geometry" />
        </mxCell>
        <mxCell id="ind6t7qouMoJOIxYdF1F-89" value="" style="rounded=0;whiteSpace=wrap;html=1;" vertex="1" parent="1">
          <mxGeometry x="360" y="770" width="120" height="20" as="geometry" />
        </mxCell>
        <mxCell id="Hil5kp-FLWFpPKHoxjlO-7" style="edgeStyle=orthogonalEdgeStyle;rounded=0;orthogonalLoop=1;jettySize=auto;html=1;entryX=0.492;entryY=0.002;entryDx=0;entryDy=0;entryPerimeter=0;" edge="1" parent="1" source="Hil5kp-FLWFpPKHoxjlO-5" target="Hil5kp-FLWFpPKHoxjlO-9">
          <mxGeometry relative="1" as="geometry">
            <mxPoint x="240" y="970" as="targetPoint" />
          </mxGeometry>
        </mxCell>
        <mxCell id="Hil5kp-FLWFpPKHoxjlO-8" style="edgeStyle=orthogonalEdgeStyle;rounded=0;orthogonalLoop=1;jettySize=auto;html=1;" edge="1" parent="1" source="Hil5kp-FLWFpPKHoxjlO-5" target="Hil5kp-FLWFpPKHoxjlO-11">
          <mxGeometry relative="1" as="geometry">
            <mxPoint x="690" y="1040" as="targetPoint" />
            <Array as="points">
              <mxPoint x="680" y="920" />
            </Array>
          </mxGeometry>
        </mxCell>
        <mxCell id="Hil5kp-FLWFpPKHoxjlO-5" value="" style="rhombus;whiteSpace=wrap;html=1;" vertex="1" parent="1">
          <mxGeometry x="380" y="880" width="80" height="80" as="geometry" />
        </mxCell>
        <mxCell id="Hil5kp-FLWFpPKHoxjlO-14" style="edgeStyle=orthogonalEdgeStyle;rounded=0;orthogonalLoop=1;jettySize=auto;html=1;entryX=0;entryY=0.5;entryDx=0;entryDy=0;" edge="1" parent="1" source="Hil5kp-FLWFpPKHoxjlO-9" target="Hil5kp-FLWFpPKHoxjlO-13">
          <mxGeometry relative="1" as="geometry">
            <Array as="points">
              <mxPoint x="220" y="1145" />
            </Array>
          </mxGeometry>
        </mxCell>
        <mxCell id="Hil5kp-FLWFpPKHoxjlO-9" value="Sd validaciÃ³n" style="shape=umlFrame;whiteSpace=wrap;html=1;pointerEvents=0;" vertex="1" parent="1">
          <mxGeometry x="90" y="969" width="280" height="221" as="geometry" />
        </mxCell>
        <mxCell id="Hil5kp-FLWFpPKHoxjlO-15" style="edgeStyle=orthogonalEdgeStyle;rounded=0;orthogonalLoop=1;jettySize=auto;html=1;entryX=1;entryY=0.5;entryDx=0;entryDy=0;" edge="1" parent="1" source="Hil5kp-FLWFpPKHoxjlO-11" target="Hil5kp-FLWFpPKHoxjlO-13">
          <mxGeometry relative="1" as="geometry">
            <Array as="points">
              <mxPoint x="680" y="1145" />
            </Array>
          </mxGeometry>
        </mxCell>
        <mxCell id="Hil5kp-FLWFpPKHoxjlO-11" value="Sd validaciÃ³n" style="shape=umlFrame;whiteSpace=wrap;html=1;pointerEvents=0;" vertex="1" parent="1">
          <mxGeometry x="560" y="969" width="340" height="233.5" as="geometry" />
        </mxCell>
        <mxCell id="Hil5kp-FLWFpPKHoxjlO-12" value="datos invalida" style="text;html=1;align=center;verticalAlign=middle;whiteSpace=wrap;rounded=0;" vertex="1" parent="1">
          <mxGeometry x="690" y="1030" width="80" height="30" as="geometry" />
        </mxCell>
        <mxCell id="Hil5kp-FLWFpPKHoxjlO-13" value="" style="ellipse;html=1;shape=endState;fillColor=#000000;strokeColor=#ff0000;" vertex="1" parent="1">
          <mxGeometry x="440" y="1220" width="30" height="30" as="geometry" />
        </mxCell>
        <mxCell id="ind6t7qouMoJOIxYdF1F-93" value="" style="html=1;verticalAlign=bottom;endArrow=block;curved=0;rounded=0;entryX=0;entryY=0;entryDx=0;entryDy=5;" edge="1" parent="1" source="ind6t7qouMoJOIxYdF1F-94" target="ind6t7qouMoJOIxYdF1F-96">
          <mxGeometry relative="1" as="geometry">
            <mxPoint x="200" y="1055" as="sourcePoint" />
          </mxGeometry>
        </mxCell>
        <mxCell id="ind6t7qouMoJOIxYdF1F-94" value="Sistema&lt;span style=&quot;color: rgba(0, 0, 0, 0); font-family: monospace; font-size: 0px; text-align: start; text-wrap-mode: nowrap;&quot;&gt;%3CmxGraphModel%3E%3Croot%3E%3CmxCell%20id%3D%220%22%2F%3E%3CmxCell%20id%3D%221%22%20parent%3D%220%22%2F%3E%3CmxCell%20id%3D%222%22%20value%3D%22%22%20style%3D%22html%3D1%3BverticalAlign%3Dbottom%3BendArrow%3Dblock%3Bcurved%3D0%3Brounded%3D0%3BentryX%3D0%3BentryY%3D0%3BentryDx%3D0%3BentryDy%3D5%3B%22%20edge%3D%221%22%20source%3D%223%22%20target%3D%225%22%20parent%3D%221%22%3E%3CmxGeometry%20relative%3D%221%22%20as%3D%22geometry%22%3E%3CmxPoint%20x%3D%22190%22%20y%3D%22545%22%20as%3D%22sourcePoint%22%2F%3E%3C%2FmxGeometry%3E%3C%2FmxCell%3E%3CmxCell%20id%3D%223%22%20value%3D%22%26lt%3Bdiv%26gt%3B%26lt%3Bbr%26gt%3B%26lt%3B%2Fdiv%26gt%3B%26lt%3Bdiv%26gt%3B%26lt%3Bspan%20style%3D%26quot%3Btext-wrap-mode%3A%20nowrap%3B%26quot%3B%26gt%3BCliente%26lt%3B%2Fspan%26gt%3B%26lt%3B%2Fdiv%26gt%3B%22%20style%3D%22shape%3DumlLifeline%3Bperimeter%3DlifelinePerimeter%3BwhiteSpace%3Dwrap%3Bhtml%3D1%3Bcontainer%3D1%3BdropTarget%3D0%3Bcollapsible%3D0%3BrecursiveResize%3D0%3BoutlineConnect%3D0%3BportConstraint%3Deastwest%3BnewEdgeStyle%3D%7B%26quot%3Bcurved%26quot%3B%3A0%2C%26quot%3Brounded%26quot%3B%3A0%7D%3B%22%20vertex%3D%221%22%20parent%3D%221%22%3E%3CmxGeometry%20x%3D%22100%22%20y%3D%22500%22%20width%3D%2270%22%20height%3D%22170%22%20as%3D%22geometry%22%2F%3E%3C%2FmxCell%3E%3CmxCell%20id%3D%224%22%20value%3D%22Base%20de%20datos%26amp%3Bnbsp%3B%22%20style%3D%22shape%3DumlLifeline%3Bperimeter%3DlifelinePerimeter%3BwhiteSpace%3Dwrap%3Bhtml%3D1%3Bcontainer%3D1%3BdropTarget%3D0%3Bcollapsible%3D0%3BrecursiveResize%3D0%3BoutlineConnect%3D0%3BportConstraint%3Deastwest%3BnewEdgeStyle%3D%7B%26quot%3Bcurved%26quot%3B%3A0%2C%26quot%3Brounded%26quot%3B%3A0%7D%3B%22%20vertex%3D%221%22%20parent%3D%221%22%3E%3CmxGeometry%20x%3D%22280%22%20y%3D%22500%22%20width%3D%2270%22%20height%3D%22170%22%20as%3D%22geometry%22%2F%3E%3C%2FmxCell%3E%3CmxCell%20id%3D%225%22%20value%3D%22%22%20style%3D%22html%3D1%3Bpoints%3D%5B%5B0%2C0%2C0%2C0%2C5%5D%2C%5B0%2C1%2C0%2C0%2C-5%5D%2C%5B1%2C0%2C0%2C0%2C5%5D%2C%5B1%2C1%2C0%2C0%2C-5%5D%5D%3Bperimeter%3DorthogonalPerimeter%3BoutlineConnect%3D0%3BtargetShapes%3DumlLifeline%3BportConstraint%3Deastwest%3BnewEdgeStyle%3D%7B%26quot%3Bcurved%26quot%3B%3A0%2C%26quot%3Brounded%26quot%3B%3A0%7D%3B%22%20vertex%3D%221%22%20parent%3D%224%22%3E%3CmxGeometry%20x%3D%2230%22%20y%3D%2250%22%20width%3D%2210%22%20height%3D%2240%22%20as%3D%22geometry%22%2F%3E%3C%2FmxCell%3E%3CmxCell%20id%3D%226%22%20value%3D%22Valida%20los%20datos%22%20style%3D%22text%3Bhtml%3D1%3Balign%3Dcenter%3BverticalAlign%3Dmiddle%3BwhiteSpace%3Dwrap%3Brounded%3D0%3B%22%20vertex%3D%221%22%20parent%3D%221%22%3E%3CmxGeometry%20x%3D%22200%22%20y%3D%22520%22%20width%3D%2260%22%20height%3D%2230%22%20as%3D%22geometry%22%2F%3E%3C%2FmxCell%3E%3C%2Froot%3E%3C%2FmxGraphModel%3E&lt;/span&gt;" style="shape=umlLifeline;perimeter=lifelinePerimeter;whiteSpace=wrap;html=1;container=1;dropTarget=0;collapsible=0;recursiveResize=0;outlineConnect=0;portConstraint=eastwest;newEdgeStyle={&quot;curved&quot;:0,&quot;rounded&quot;:0};" vertex="1" parent="1">
          <mxGeometry x="110" y="1010" width="70" height="170" as="geometry" />
        </mxCell>
        <mxCell id="ind6t7qouMoJOIxYdF1F-95" value="Base de datos&amp;nbsp;" style="shape=umlLifeline;perimeter=lifelinePerimeter;whiteSpace=wrap;html=1;container=1;dropTarget=0;collapsible=0;recursiveResize=0;outlineConnect=0;portConstraint=eastwest;newEdgeStyle={&quot;curved&quot;:0,&quot;rounded&quot;:0};" vertex="1" parent="1">
          <mxGeometry x="290" y="1010" width="70" height="170" as="geometry" />
        </mxCell>
        <mxCell id="ind6t7qouMoJOIxYdF1F-96" value="" style="html=1;points=[[0,0,0,0,5],[0,1,0,0,-5],[1,0,0,0,5],[1,1,0,0,-5]];perimeter=orthogonalPerimeter;outlineConnect=0;targetShapes=umlLifeline;portConstraint=eastwest;newEdgeStyle={&quot;curved&quot;:0,&quot;rounded&quot;:0};" vertex="1" parent="ind6t7qouMoJOIxYdF1F-95">
          <mxGeometry x="30" y="50" width="10" height="40" as="geometry" />
        </mxCell>
        <mxCell id="ind6t7qouMoJOIxYdF1F-97" value="Valida los datos" style="text;html=1;align=center;verticalAlign=middle;whiteSpace=wrap;rounded=0;" vertex="1" parent="1">
          <mxGeometry x="210" y="1030" width="60" height="30" as="geometry" />
        </mxCell>
        <mxCell id="ind6t7qouMoJOIxYdF1F-98" value="" style="html=1;verticalAlign=bottom;endArrow=block;curved=0;rounded=0;entryX=0;entryY=0;entryDx=0;entryDy=5;" edge="1" parent="1" source="ind6t7qouMoJOIxYdF1F-99" target="ind6t7qouMoJOIxYdF1F-101">
          <mxGeometry relative="1" as="geometry">
            <mxPoint x="690" y="1055" as="sourcePoint" />
          </mxGeometry>
        </mxCell>
        <mxCell id="ind6t7qouMoJOIxYdF1F-99" value="Sistema" style="shape=umlLifeline;perimeter=lifelinePerimeter;whiteSpace=wrap;html=1;container=1;dropTarget=0;collapsible=0;recursiveResize=0;outlineConnect=0;portConstraint=eastwest;newEdgeStyle={&quot;curved&quot;:0,&quot;rounded&quot;:0};" vertex="1" parent="1">
          <mxGeometry x="600" y="1010" width="70" height="170" as="geometry" />
        </mxCell>
        <mxCell id="ind6t7qouMoJOIxYdF1F-100" value="Base de datos&amp;nbsp;" style="shape=umlLifeline;perimeter=lifelinePerimeter;whiteSpace=wrap;html=1;container=1;dropTarget=0;collapsible=0;recursiveResize=0;outlineConnect=0;portConstraint=eastwest;newEdgeStyle={&quot;curved&quot;:0,&quot;rounded&quot;:0};" vertex="1" parent="1">
          <mxGeometry x="780" y="1010" width="70" height="170" as="geometry" />
        </mxCell>
        <mxCell id="ind6t7qouMoJOIxYdF1F-101" value="" style="html=1;points=[[0,0,0,0,5],[0,1,0,0,-5],[1,0,0,0,5],[1,1,0,0,-5]];perimeter=orthogonalPerimeter;outlineConnect=0;targetShapes=umlLifeline;portConstraint=eastwest;newEdgeStyle={&quot;curved&quot;:0,&quot;rounded&quot;:0};" vertex="1" parent="ind6t7qouMoJOIxYdF1F-100">
          <mxGeometry x="30" y="50" width="10" height="40" as="geometry" />
        </mxCell>
      </root>
    </mxGraphModel>
  </diagram>
</mxfile>
